<!--
   Keyleds Logo is licensed under the Creative Commons License CC By 4.0. To view a copy of this license, visit http://creativecommons.org/licenses/by/4.0/.
   Author : Sophie Abbad <abbadsophie@gmail.com>
-->
<svg xmlns="http://www.w3.org/2000/svg" width="1415.899" height="1237.998" xmlns:xlink="http://www.w3.org/1999/xlink" viewBox="0 0 1415.8991 1549">
  <defs>
    <linearGradient id="a">
      <stop offset="0" stop-color="#ececec"/>
      <stop offset="1" stop-color="#f2f2f2" stop-opacity="0"/>
    </linearGradient>
    <linearGradient id="d" x1="-1671.55" x2="-1822.169" y1="4942.736" y2="4922.859" gradientTransform="translate(-152.364 7588.622)" gradientUnits="userSpaceOnUse" xlink:href="#a"/>
    <linearGradient id="c" x1="-1671.55" x2="-1822.169" y1="4942.736" y2="4922.859" xlink:href="#a" gradientUnits="userSpaceOnUse" gradientTransform="translate(-152.364 7588.622)"/>
    <linearGradient id="b" x1="-1671.55" x2="-1822.169" y1="4942.736" y2="4922.859" xlink:href="#a" gradientUnits="userSpaceOnUse" gradientTransform="translate(2076.623 -4413.46)"/>
  </defs>
  <path fill="#f9f9f9" d="M125.37 163.055L1.29 405.883c-4.44 12.91 3.258 19.485 12.58 29.015L325.99 728.77c30.407 28.63 69.036 15.736 102.41-1.11l393.45-198.61c19.176-9.25 16.59-25.2 9.12-47.5L729.782 235.544C641.485 253.11 158.78 97.675 125.37 163.057z"/>
  <path fill="url(#b)" d="M295.497 334.787l-106.228 245.8L325.99 728.77c28.446 30.577 69.035 15.735 102.41-1.112l393.448-198.61c19.176-9.25 16.588-25.2 9.12-47.5L729.784 235.543z"/>
  <path fill="#ececec" d="M437.238 723.197L827.84 535.143c19.178-9.25 16.59-25.2 9.12-47.5L737.32 245.405c-81.466-44.458-232.85-36.93-332.228-48.376"/>
  <path fill="none" d="M405.09 197.03l-259.587-30.793L27.276 392.19c-4.442 12.91 3.256 19.485 12.577 29.015l286.14 307.565c28.444 30.576 69.033 15.735 102.407-1.112l8.837-4.46"/>
  <path fill="#fbfbfb" d="M130.7 182.635L371.286 409.15c18.38 17.306 49.006 14.24 62.594 9.907 13.586-4.333 93.88-29.253 156.5-59.328 62.62-30.076 124.255-73.323 132.066-79.27 7.81-5.945 27.13-26.46 8.465-44.035L490.36 9.94c-18.41-17.333-45.92-9.556-64.34 4.727s-60.687 40.12-126.164 71.57c-65.477 31.447-115.06 49.035-141.006 56.746-25.947 7.71-46.53 22.346-28.15 39.652z"/>
  <path fill="#d35f5f" stroke-width="32" stroke-dashoffset=".4" d="M464.243 323.037L296.95 167.007l68.97-33.14q10.763-5.172 24.718-4.884 13.937-.038 28.54 4.267 14.364 4.086 28.23 11.74 13.63 7.437 23.762 16.887 16.257 15.163 22 31.383 5.726 15.895-1.343 27.616l98.496 41.577-34.046 16.36-87.93-37-29.87 14.355 56.077 52.302-30.31 14.567zm-54.277-93.46l38-18.258q4.173-2.007 5.567-5.673 1.613-3.772.715-8.335-1.134-4.783-4.545-10.137-3.41-5.353-9.065-10.628-5.89-5.493-12.596-9.264-6.705-3.77-13.314-5.59-6.626-2.143-12.465-2.002-5.853-.182-9.807 1.717l-36.682 17.626 54.195 50.545z" style="-inkscape-font-specification:'Raleway Bold'" font-family="Raleway" font-weight="bold" font-size="270.444" text-anchor="middle" stroke-linecap="round" stroke-linejoin="round" stroke-dasharray="0.5, 0.5"/>
  <path fill="#f9f9f9" d="M698.72 405.515L574.645 648.343c-4.442 12.91 3.256 19.485 12.577 29.015L899.344 971.23c30.406 28.63 69.035 15.736 102.41-1.11L1395.2 771.51c19.177-9.25 16.59-25.2 9.12-47.5l-101.185-246.005c-88.298 17.566-571.004-137.87-604.413-72.488z"/>
  <path fill="url(#c)" d="M-1933.49 12336.87l-106.228 245.8 136.723 148.184c28.446 30.576 69.035 15.734 102.41-1.113l393.448-198.61c19.176-9.25 16.588-25.2 9.12-47.5l-101.186-246.004z" transform="translate(2802.338 -11759.623)"/>
  <path fill="#ececec" d="M1010.59 965.657l390.603-188.054c19.176-9.25 16.588-25.2 9.12-47.5l-99.644-242.238c-81.467-44.458-232.85-36.93-332.23-48.376"/>
  <path fill="none" d="M978.44 439.49l-259.585-30.793L600.627 634.65c-4.442 12.91 3.256 19.485 12.577 29.015l286.14 307.565c28.444 30.576 69.033 15.735 102.407-1.112l8.84-4.46"/>
  <path fill="#fbfbfb" d="M704.053 425.095L944.636 651.61c18.38 17.306 49.006 14.24 62.594 9.907 13.586-4.333 93.88-29.253 156.5-59.328 62.618-30.076 124.255-73.323 132.066-79.27 7.81-5.945 27.13-26.46 8.465-44.035-18.663-17.575-222.14-209.154-240.55-226.486-18.41-17.333-45.92-9.556-64.34 4.727s-60.686 40.12-126.163 71.57c-65.477 31.447-115.06 49.035-141.006 56.746-25.945 7.71-46.527 22.346-28.147 39.652z"/>
  <path fill="#625fd3" stroke-width="32" stroke-dashoffset=".4" d="M1103.555 533.802c33.167-15.937 30.636-40.027 6.13-62.88l-8.246-7.693c-15.08-14.065-36.606-22.035-51.423-21.575 3.743-10.79-4.416-25.848-14.548-35.297l-7.07-6.592c-29.45-27.47-62.543-32.88-95.49-17.047l-50.74 24.38c-3.954 1.9-3.73 6.454.51 10.41l149.856 139.764c4.24 3.956 10.615 5.554 14.568 3.655l56.45-27.126zM932.298 420.637l27.675-13.298c13.4-6.44 25.19-4.446 41.21 10.5l1.65 1.536c15.08 14.063 15.747 23.066 6.96 27.288l-32.727 15.726-44.768-41.754zm69.273 64.608l34.705-16.676c10.543-5.067 24.03-.56 35.81 10.43l4.478 4.174c10.84 10.11 13.123 20 .163 26.226l-32.508 15.62-42.647-39.775z" style="line-height:125%;-inkscape-font-specification:'AntartidaRD Ess, Bold';text-align:center" font-weight="bold" font-size="270.44" font-family="AntartidaRD Ess" text-anchor="middle" stroke-linecap="round" stroke-linejoin="round" stroke-dasharray="0.5, 0.5"/>
  <g>
    <path fill="#f9f9f9" d="M180.627 654.577L56.55 897.404c-4.443 12.91 3.255 19.485 12.576 29.015l312.122 293.87c30.406 28.63 69.035 15.736 102.41-1.11l393.448-198.61c19.176-9.25 16.588-25.203 9.12-47.503L785.04 727.064c-88.3 17.566-571.004-137.87-604.413-72.488z"/>
    <path fill="url(#d)" d="M-1933.49 12336.87l-106.228 245.8 136.723 148.184c28.446 30.576 69.035 15.734 102.41-1.113l393.448-198.61c19.176-9.25 16.588-25.2 9.12-47.5l-101.186-246.004z" transform="translate(2284.243 -11510.563)"/>
    <path fill="#ececec" d="M492.494 1214.717l390.604-188.054c19.176-9.25 16.588-25.2 9.12-47.5l-99.644-242.238c-81.466-44.458-232.85-36.93-332.228-48.376"/>
    <path fill="none" d="M460.346 688.55L200.76 657.756 82.53 883.71c-4.44 12.91 3.258 19.485 12.58 29.015l286.14 307.565c28.443 30.576 69.033 15.735 102.406-1.112l8.838-4.46"/>
    <path fill="#fbfbfb" d="M185.96 674.155L426.54 900.67c18.38 17.306 49.007 14.24 62.595 9.907 13.587-4.333 93.882-29.253 156.5-59.328 62.62-30.076 124.256-73.323 132.067-79.27 7.812-5.945 27.13-26.46 8.466-44.035L545.618 501.46c-18.41-17.333-45.922-9.556-64.34 4.727-18.42 14.283-60.688 40.12-126.165 71.57-65.476 31.447-115.06 49.035-141.005 56.746-25.946 7.71-46.528 22.346-28.148 39.652z"/>
    <path fill="#72d35f" stroke-width="32" stroke-dashoffset=".4" d="M511.36 646.655c-28.274-26.37-70.594-32.007-103.542-16.176-32.73 15.725-35.716 46.462-2.964 77.01l64.324 59.99c32.752 30.547 76.785 39.023 106.438 24.775 12.08-5.805 19.89-16.216 19.126-27.17l3.268 2.425c5.12 3.534 11.697 4.702 15.87 2.697l12.74-6.122c3.954-1.9 3.73-6.454-.275-10.19l-71.393-66.586c-4.242-3.956-10.615-5.555-14.57-3.655l-46.785 22.48c-3.954 1.9-3.73 6.454.51 10.41l11.31 10.548c4.242 3.956 10.616 5.555 14.57 3.655l23.063-11.08 23.326 21.755c1.61 9.882-2.684 18.604-13.227 23.67-16.914 8.127-36.946 3.102-56.267-14.918l-58.433-54.5c-19.32-18.02-18.925-32.86-3.77-40.143 16.035-7.705 35.06-4.86 48.49 7.667l2.593 2.417c4.24 3.955 9.704 5.326 13.44 3.532l17.13-8.234c3.955-1.9 3.512-6.348-.494-10.084l-4.477-4.175z" style="line-height:125%;-inkscape-font-specification:'AntartidaRD Ess, Bold';text-align:center" font-weight="bold" font-size="270.44" font-family="AntartidaRD Ess" text-anchor="middle" stroke-linecap="round" stroke-linejoin="round" stroke-dasharray="0.5, 0.5"/>
  </g>
</svg>
